<mxfile host="app.diagrams.net" modified="2024-03-22T06:48:18.115Z" agent="Mozilla/5.0 (Windows NT 10.0; Win64; x64) AppleWebKit/537.36 (KHTML, like Gecko) Chrome/122.0.0.0 Safari/537.36" etag="xzpM-vHfpK0QK8fVoxLl" version="24.0.7" type="github">
  <diagram name="第 1 页" id="AtsQym_dxO1_dc0x-YwW">
    <mxGraphModel dx="1674" dy="1915" grid="1" gridSize="10" guides="1" tooltips="1" connect="1" arrows="1" fold="1" page="1" pageScale="1" pageWidth="827" pageHeight="1169" math="0" shadow="0">
      <root>
        <mxCell id="0" />
        <mxCell id="1" parent="0" />
        <mxCell id="234MPPTfTjV2CmHxofjI-33" value="" style="rounded=0;whiteSpace=wrap;html=1;" parent="1" vertex="1">
          <mxGeometry y="725" width="1450" height="445" as="geometry" />
        </mxCell>
        <mxCell id="234MPPTfTjV2CmHxofjI-32" value="" style="rounded=0;whiteSpace=wrap;html=1;" parent="1" vertex="1">
          <mxGeometry y="1270" width="1450" height="570" as="geometry" />
        </mxCell>
        <mxCell id="234MPPTfTjV2CmHxofjI-31" value="" style="rounded=0;whiteSpace=wrap;html=1;" parent="1" vertex="1">
          <mxGeometry y="80" width="1450" height="610" as="geometry" />
        </mxCell>
        <mxCell id="234MPPTfTjV2CmHxofjI-30" value="" style="rounded=0;whiteSpace=wrap;html=1;" parent="1" vertex="1">
          <mxGeometry y="-370" width="1450" height="430" as="geometry" />
        </mxCell>
        <mxCell id="ZUFd0P2jgmWvZ_iUmbDj-3" value="" style="edgeStyle=orthogonalEdgeStyle;rounded=0;orthogonalLoop=1;jettySize=auto;html=1;" parent="1" source="ZUFd0P2jgmWvZ_iUmbDj-1" target="ZUFd0P2jgmWvZ_iUmbDj-2" edge="1">
          <mxGeometry relative="1" as="geometry" />
        </mxCell>
        <mxCell id="ZUFd0P2jgmWvZ_iUmbDj-1" value="Actor" style="shape=umlActor;verticalLabelPosition=bottom;verticalAlign=top;html=1;outlineConnect=0;" parent="1" vertex="1">
          <mxGeometry x="40" y="200" width="30" height="60" as="geometry" />
        </mxCell>
        <mxCell id="ZUFd0P2jgmWvZ_iUmbDj-6" value="" style="edgeStyle=orthogonalEdgeStyle;rounded=0;orthogonalLoop=1;jettySize=auto;html=1;" parent="1" source="ZUFd0P2jgmWvZ_iUmbDj-2" target="ZUFd0P2jgmWvZ_iUmbDj-5" edge="1">
          <mxGeometry relative="1" as="geometry">
            <Array as="points">
              <mxPoint x="400" y="230" />
              <mxPoint x="400" y="190" />
            </Array>
          </mxGeometry>
        </mxCell>
        <mxCell id="ZUFd0P2jgmWvZ_iUmbDj-7" value="" style="edgeStyle=orthogonalEdgeStyle;rounded=0;orthogonalLoop=1;jettySize=auto;html=1;" parent="1" source="ZUFd0P2jgmWvZ_iUmbDj-2" target="ZUFd0P2jgmWvZ_iUmbDj-5" edge="1">
          <mxGeometry relative="1" as="geometry">
            <Array as="points">
              <mxPoint x="400" y="230" />
              <mxPoint x="400" y="190" />
            </Array>
          </mxGeometry>
        </mxCell>
        <mxCell id="ZUFd0P2jgmWvZ_iUmbDj-20" value="&lt;span style=&quot;font-size: 12px; background-color: rgb(251, 251, 251);&quot;&gt;未找到&lt;/span&gt;" style="edgeLabel;html=1;align=center;verticalAlign=middle;resizable=0;points=[];" parent="ZUFd0P2jgmWvZ_iUmbDj-7" vertex="1" connectable="0">
          <mxGeometry x="0.1429" y="-1" relative="1" as="geometry">
            <mxPoint as="offset" />
          </mxGeometry>
        </mxCell>
        <mxCell id="ZUFd0P2jgmWvZ_iUmbDj-10" value="" style="edgeStyle=orthogonalEdgeStyle;rounded=0;orthogonalLoop=1;jettySize=auto;html=1;" parent="1" source="ZUFd0P2jgmWvZ_iUmbDj-2" target="ZUFd0P2jgmWvZ_iUmbDj-9" edge="1">
          <mxGeometry relative="1" as="geometry">
            <Array as="points">
              <mxPoint x="400" y="230" />
              <mxPoint x="400" y="280" />
            </Array>
          </mxGeometry>
        </mxCell>
        <mxCell id="ZUFd0P2jgmWvZ_iUmbDj-19" value="&lt;span style=&quot;font-size: 12px; background-color: rgb(251, 251, 251);&quot;&gt;找到&lt;/span&gt;" style="edgeLabel;html=1;align=center;verticalAlign=middle;resizable=0;points=[];" parent="ZUFd0P2jgmWvZ_iUmbDj-10" vertex="1" connectable="0">
          <mxGeometry x="0.1091" y="-3" relative="1" as="geometry">
            <mxPoint x="8" y="-3" as="offset" />
          </mxGeometry>
        </mxCell>
        <mxCell id="ZUFd0P2jgmWvZ_iUmbDj-2" value="查载具" style="whiteSpace=wrap;html=1;verticalAlign=center;" parent="1" vertex="1">
          <mxGeometry x="250" y="200" width="120" height="60" as="geometry" />
        </mxCell>
        <mxCell id="ZUFd0P2jgmWvZ_iUmbDj-4" value="选择rfid设备" style="text;html=1;align=center;verticalAlign=middle;resizable=0;points=[];autosize=1;strokeColor=none;fillColor=none;" parent="1" vertex="1">
          <mxGeometry x="95" y="198" width="90" height="30" as="geometry" />
        </mxCell>
        <mxCell id="ZUFd0P2jgmWvZ_iUmbDj-5" value="提示不存在" style="whiteSpace=wrap;html=1;verticalAlign=center;" parent="1" vertex="1">
          <mxGeometry x="540" y="160" width="170" height="60" as="geometry" />
        </mxCell>
        <mxCell id="ZUFd0P2jgmWvZ_iUmbDj-14" value="" style="edgeStyle=orthogonalEdgeStyle;rounded=0;orthogonalLoop=1;jettySize=auto;html=1;" parent="1" source="ZUFd0P2jgmWvZ_iUmbDj-9" target="ZUFd0P2jgmWvZ_iUmbDj-13" edge="1">
          <mxGeometry relative="1" as="geometry">
            <Array as="points">
              <mxPoint x="625" y="350" />
              <mxPoint x="474" y="350" />
            </Array>
          </mxGeometry>
        </mxCell>
        <mxCell id="ZUFd0P2jgmWvZ_iUmbDj-15" value="&lt;span style=&quot;color: rgb(255, 153, 0); font-family: -apple-system, BlinkMacSystemFont, &amp;quot;Segoe UI&amp;quot;, Roboto, Oxygen, Ubuntu, &amp;quot;Fira Sans&amp;quot;, &amp;quot;Droid Sans&amp;quot;, &amp;quot;Helvetica Neue&amp;quot;, sans-serif; font-size: 14px; text-align: left; text-wrap: wrap;&quot;&gt;is_stockout=0&lt;/span&gt;" style="edgeLabel;html=1;align=center;verticalAlign=middle;resizable=0;points=[];" parent="ZUFd0P2jgmWvZ_iUmbDj-14" vertex="1" connectable="0">
          <mxGeometry x="0.5576" y="-2" relative="1" as="geometry">
            <mxPoint as="offset" />
          </mxGeometry>
        </mxCell>
        <mxCell id="ZUFd0P2jgmWvZ_iUmbDj-17" style="edgeStyle=orthogonalEdgeStyle;rounded=0;orthogonalLoop=1;jettySize=auto;html=1;" parent="1" source="ZUFd0P2jgmWvZ_iUmbDj-9" edge="1">
          <mxGeometry relative="1" as="geometry">
            <mxPoint x="810" y="470" as="targetPoint" />
            <Array as="points">
              <mxPoint x="625" y="350" />
              <mxPoint x="811" y="350" />
            </Array>
          </mxGeometry>
        </mxCell>
        <mxCell id="ZUFd0P2jgmWvZ_iUmbDj-18" value="&lt;span style=&quot;color: rgb(255, 153, 0); font-family: -apple-system, BlinkMacSystemFont, &amp;quot;Segoe UI&amp;quot;, Roboto, Oxygen, Ubuntu, &amp;quot;Fira Sans&amp;quot;, &amp;quot;Droid Sans&amp;quot;, &amp;quot;Helvetica Neue&amp;quot;, sans-serif; font-size: 14px; text-align: left; text-wrap: wrap;&quot;&gt;is_stockout=2&lt;/span&gt;" style="edgeLabel;html=1;align=center;verticalAlign=middle;resizable=0;points=[];" parent="ZUFd0P2jgmWvZ_iUmbDj-17" vertex="1" connectable="0">
          <mxGeometry x="0.636" y="-3" relative="1" as="geometry">
            <mxPoint as="offset" />
          </mxGeometry>
        </mxCell>
        <mxCell id="ZUFd0P2jgmWvZ_iUmbDj-9" value="&lt;span style=&quot;color: rgb(255, 153, 0); font-family: -apple-system, BlinkMacSystemFont, &amp;quot;Segoe UI&amp;quot;, Roboto, Oxygen, Ubuntu, &amp;quot;Fira Sans&amp;quot;, &amp;quot;Droid Sans&amp;quot;, &amp;quot;Helvetica Neue&amp;quot;, sans-serif; font-size: 14px; text-align: left; background-color: rgb(255, 255, 255);&quot;&gt;查inv_rfid_label_received&lt;/span&gt;" style="whiteSpace=wrap;html=1;verticalAlign=center;" parent="1" vertex="1">
          <mxGeometry x="540" y="250" width="170" height="60" as="geometry" />
        </mxCell>
        <mxCell id="ZUFd0P2jgmWvZ_iUmbDj-13" value="1.&lt;span style=&quot;color: rgb(255, 153, 0); font-family: -apple-system, BlinkMacSystemFont, &amp;quot;Segoe UI&amp;quot;, Roboto, Oxygen, Ubuntu, &amp;quot;Fira Sans&amp;quot;, &amp;quot;Droid Sans&amp;quot;, &amp;quot;Helvetica Neue&amp;quot;, sans-serif; font-size: 14px; text-align: left; background-color: rgb(255, 255, 255);&quot;&gt;更新fnd_goods_location_occupy.&lt;/span&gt;&lt;div&gt;&lt;span style=&quot;color: rgb(255, 153, 0); font-family: -apple-system, BlinkMacSystemFont, &amp;quot;Segoe UI&amp;quot;, Roboto, Oxygen, Ubuntu, &amp;quot;Fira Sans&amp;quot;, &amp;quot;Droid Sans&amp;quot;, &amp;quot;Helvetica Neue&amp;quot;, sans-serif; font-size: 14px; text-align: left; background-color: rgb(255, 255, 255);&quot;&gt;2.&lt;/span&gt;&lt;span style=&quot;background-color: rgb(255, 255, 255); color: rgb(255, 153, 0); font-family: -apple-system, BlinkMacSystemFont, &amp;quot;Segoe UI&amp;quot;, Roboto, Oxygen, Ubuntu, &amp;quot;Fira Sans&amp;quot;, &amp;quot;Droid Sans&amp;quot;, &amp;quot;Helvetica Neue&amp;quot;, sans-serif; font-size: 14px; text-align: left;&quot;&gt;更新现有量表inv_onhand_qty&amp;nbsp; &amp;nbsp; &amp;nbsp;&lt;/span&gt;&lt;/div&gt;&lt;div&gt;&lt;span style=&quot;background-color: rgb(255, 255, 255); color: rgb(255, 153, 0); font-family: -apple-system, BlinkMacSystemFont, &amp;quot;Segoe UI&amp;quot;, Roboto, Oxygen, Ubuntu, &amp;quot;Fira Sans&amp;quot;, &amp;quot;Droid Sans&amp;quot;, &amp;quot;Helvetica Neue&amp;quot;, sans-serif; font-size: 14px; text-align: left;&quot;&gt;3.&lt;/span&gt;&lt;span style=&quot;background-color: rgb(255, 255, 255); color: rgb(255, 153, 0); font-family: -apple-system, BlinkMacSystemFont, &amp;quot;Segoe UI&amp;quot;, Roboto, Oxygen, Ubuntu, &amp;quot;Fira Sans&amp;quot;, &amp;quot;Droid Sans&amp;quot;, &amp;quot;Helvetica Neue&amp;quot;, sans-serif; font-size: 14px; text-align: left;&quot;&gt;更新fnd_container_barcode&amp;nbsp; &amp;nbsp; &amp;nbsp; &amp;nbsp;&amp;nbsp;&lt;/span&gt;&lt;/div&gt;&lt;div&gt;&lt;span style=&quot;background-color: rgb(255, 255, 255); color: rgb(255, 153, 0); font-family: -apple-system, BlinkMacSystemFont, &amp;quot;Segoe UI&amp;quot;, Roboto, Oxygen, Ubuntu, &amp;quot;Fira Sans&amp;quot;, &amp;quot;Droid Sans&amp;quot;, &amp;quot;Helvetica Neue&amp;quot;, sans-serif; font-size: 14px; text-align: left;&quot;&gt;4.&lt;/span&gt;&lt;span style=&quot;background-color: rgb(255, 255, 255); color: rgb(255, 153, 0); font-family: -apple-system, BlinkMacSystemFont, &amp;quot;Segoe UI&amp;quot;, Roboto, Oxygen, Ubuntu, &amp;quot;Fira Sans&amp;quot;, &amp;quot;Droid Sans&amp;quot;, &amp;quot;Helvetica Neue&amp;quot;, sans-serif; font-size: 14px; text-align: left;&quot;&gt;调用AGV容器出场接口&amp;nbsp; &amp;nbsp; &amp;nbsp; &amp;nbsp; &amp;nbsp; &amp;nbsp; &amp;nbsp; &amp;nbsp; &amp;nbsp; （/interfaces/kmres/api/public/containerOut）&lt;/span&gt;&lt;/div&gt;&lt;div&gt;&lt;span style=&quot;background-color: rgb(255, 255, 255); color: rgb(255, 153, 0); font-family: -apple-system, BlinkMacSystemFont, &amp;quot;Segoe UI&amp;quot;, Roboto, Oxygen, Ubuntu, &amp;quot;Fira Sans&amp;quot;, &amp;quot;Droid Sans&amp;quot;, &amp;quot;Helvetica Neue&amp;quot;, sans-serif; font-size: 14px; text-align: left;&quot;&gt;5.&lt;/span&gt;&lt;span style=&quot;background-color: rgb(255, 255, 255); color: rgb(255, 153, 0); font-family: -apple-system, BlinkMacSystemFont, &amp;quot;Segoe UI&amp;quot;, Roboto, Oxygen, Ubuntu, &amp;quot;Fira Sans&amp;quot;, &amp;quot;Droid Sans&amp;quot;, &amp;quot;Helvetica Neue&amp;quot;, sans-serif; font-size: 14px; text-align: left;&quot;&gt;更新排产清单配送数&amp;nbsp; &amp;nbsp; &amp;nbsp; &amp;nbsp; &amp;nbsp; &amp;nbsp; &amp;nbsp; &amp;nbsp; &amp;nbsp; &amp;nbsp;&amp;nbsp;&lt;/span&gt;&lt;/div&gt;&lt;div&gt;&lt;span style=&quot;background-color: rgb(255, 255, 255); color: rgb(255, 153, 0); font-family: -apple-system, BlinkMacSystemFont, &amp;quot;Segoe UI&amp;quot;, Roboto, Oxygen, Ubuntu, &amp;quot;Fira Sans&amp;quot;, &amp;quot;Droid Sans&amp;quot;, &amp;quot;Helvetica Neue&amp;quot;, sans-serif; font-size: 14px; text-align: left;&quot;&gt;6.&lt;/span&gt;&lt;span style=&quot;background-color: rgb(255, 255, 255); color: rgb(255, 153, 0); font-family: -apple-system, BlinkMacSystemFont, &amp;quot;Segoe UI&amp;quot;, Roboto, Oxygen, Ubuntu, &amp;quot;Fira Sans&amp;quot;, &amp;quot;Droid Sans&amp;quot;, &amp;quot;Helvetica Neue&amp;quot;, sans-serif; font-size: 14px; text-align: left;&quot;&gt;推送信息给水墨屏&amp;nbsp; &amp;nbsp; &amp;nbsp; &amp;nbsp; &amp;nbsp; &amp;nbsp; &amp;nbsp; &amp;nbsp; &amp;nbsp; &amp;nbsp; &amp;nbsp; &amp;nbsp;&amp;nbsp;&lt;/span&gt;&lt;/div&gt;&lt;div&gt;&lt;span style=&quot;background-color: rgb(255, 255, 255); color: rgb(255, 153, 0); font-family: -apple-system, BlinkMacSystemFont, &amp;quot;Segoe UI&amp;quot;, Roboto, Oxygen, Ubuntu, &amp;quot;Fira Sans&amp;quot;, &amp;quot;Droid Sans&amp;quot;, &amp;quot;Helvetica Neue&amp;quot;, sans-serif; font-size: 14px; text-align: left;&quot;&gt;7.&lt;/span&gt;&lt;span style=&quot;background-color: rgb(255, 255, 255); color: rgb(255, 153, 0); font-family: -apple-system, BlinkMacSystemFont, &amp;quot;Segoe UI&amp;quot;, Roboto, Oxygen, Ubuntu, &amp;quot;Fira Sans&amp;quot;, &amp;quot;Droid Sans&amp;quot;, &amp;quot;Helvetica Neue&amp;quot;, sans-serif; font-size: 14px; text-align: left;&quot;&gt;更新inv_rfid_label_received&amp;nbsp; &amp;nbsp; &amp;nbsp; &amp;nbsp; &amp;nbsp; &amp;nbsp;&lt;/span&gt;&lt;/div&gt;&lt;div&gt;&lt;span style=&quot;background-color: rgb(255, 255, 255); color: rgb(255, 153, 0); font-family: -apple-system, BlinkMacSystemFont, &amp;quot;Segoe UI&amp;quot;, Roboto, Oxygen, Ubuntu, &amp;quot;Fira Sans&amp;quot;, &amp;quot;Droid Sans&amp;quot;, &amp;quot;Helvetica Neue&amp;quot;, sans-serif; font-size: 14px; text-align: left;&quot;&gt;&lt;br&gt;&lt;/span&gt;&lt;/div&gt;" style="whiteSpace=wrap;html=1;verticalAlign=center;" parent="1" vertex="1">
          <mxGeometry x="170" y="480" width="364" height="150" as="geometry" />
        </mxCell>
        <mxCell id="ZUFd0P2jgmWvZ_iUmbDj-16" value="1.&lt;span style=&quot;color: rgb(255, 153, 0); font-family: -apple-system, BlinkMacSystemFont, &amp;quot;Segoe UI&amp;quot;, Roboto, Oxygen, Ubuntu, &amp;quot;Fira Sans&amp;quot;, &amp;quot;Droid Sans&amp;quot;, &amp;quot;Helvetica Neue&amp;quot;, sans-serif; font-size: 14px; text-align: left; background-color: rgb(255, 255, 255);&quot;&gt;更新inv_rfid_label_received&amp;nbsp; &amp;nbsp; &amp;nbsp; &amp;nbsp; &amp;nbsp; &amp;nbsp; &amp;nbsp;&lt;/span&gt;&lt;div&gt;&lt;span style=&quot;color: rgb(255, 153, 0); font-family: -apple-system, BlinkMacSystemFont, &amp;quot;Segoe UI&amp;quot;, Roboto, Oxygen, Ubuntu, &amp;quot;Fira Sans&amp;quot;, &amp;quot;Droid Sans&amp;quot;, &amp;quot;Helvetica Neue&amp;quot;, sans-serif; font-size: 14px; text-align: left; background-color: rgb(255, 255, 255);&quot;&gt;2.&lt;/span&gt;&lt;span style=&quot;color: rgb(255, 153, 0); font-family: -apple-system, BlinkMacSystemFont, &amp;quot;Segoe UI&amp;quot;, Roboto, Oxygen, Ubuntu, &amp;quot;Fira Sans&amp;quot;, &amp;quot;Droid Sans&amp;quot;, &amp;quot;Helvetica Neue&amp;quot;, sans-serif; font-size: 14px; text-align: left; background-color: rgb(255, 255, 255);&quot;&gt;调用AGV接口下发AGV搬运任务&lt;/span&gt;&lt;span style=&quot;background-color: rgb(255, 255, 255); color: rgb(255, 153, 0); font-family: -apple-system, BlinkMacSystemFont, &amp;quot;Segoe UI&amp;quot;, Roboto, Oxygen, Ubuntu, &amp;quot;Fira Sans&amp;quot;, &amp;quot;Droid Sans&amp;quot;, &amp;quot;Helvetica Neue&amp;quot;, sans-serif; font-size: 14px; text-align: left;&quot;&gt;&amp;nbsp; &amp;nbsp; &amp;nbsp;&lt;/span&gt;&lt;/div&gt;&lt;div&gt;&lt;span style=&quot;background-color: rgb(255, 255, 255); color: rgb(255, 153, 0); font-family: -apple-system, BlinkMacSystemFont, &amp;quot;Segoe UI&amp;quot;, Roboto, Oxygen, Ubuntu, &amp;quot;Fira Sans&amp;quot;, &amp;quot;Droid Sans&amp;quot;, &amp;quot;Helvetica Neue&amp;quot;, sans-serif; font-size: 14px; text-align: left;&quot;&gt;&amp;nbsp; &amp;nbsp; &amp;nbsp; &amp;nbsp; &amp;nbsp;&lt;/span&gt;&lt;br&gt;&lt;/div&gt;&lt;div&gt;&lt;span style=&quot;background-color: rgb(255, 255, 255); color: rgb(255, 153, 0); font-family: -apple-system, BlinkMacSystemFont, &amp;quot;Segoe UI&amp;quot;, Roboto, Oxygen, Ubuntu, &amp;quot;Fira Sans&amp;quot;, &amp;quot;Droid Sans&amp;quot;, &amp;quot;Helvetica Neue&amp;quot;, sans-serif; font-size: 14px; text-align: left;&quot;&gt;&lt;br&gt;&lt;/span&gt;&lt;/div&gt;" style="whiteSpace=wrap;html=1;verticalAlign=center;" parent="1" vertex="1">
          <mxGeometry x="650" y="480" width="364" height="150" as="geometry" />
        </mxCell>
        <mxCell id="ZUFd0P2jgmWvZ_iUmbDj-21" value="" style="edgeStyle=orthogonalEdgeStyle;rounded=0;orthogonalLoop=1;jettySize=auto;html=1;" parent="1" source="ZUFd0P2jgmWvZ_iUmbDj-22" target="ZUFd0P2jgmWvZ_iUmbDj-28" edge="1">
          <mxGeometry relative="1" as="geometry" />
        </mxCell>
        <mxCell id="ZUFd0P2jgmWvZ_iUmbDj-22" value="Actor" style="shape=umlActor;verticalLabelPosition=bottom;verticalAlign=top;html=1;outlineConnect=0;" parent="1" vertex="1">
          <mxGeometry x="40" y="850" width="30" height="60" as="geometry" />
        </mxCell>
        <mxCell id="ZUFd0P2jgmWvZ_iUmbDj-23" value="" style="edgeStyle=orthogonalEdgeStyle;rounded=0;orthogonalLoop=1;jettySize=auto;html=1;" parent="1" source="ZUFd0P2jgmWvZ_iUmbDj-28" target="ZUFd0P2jgmWvZ_iUmbDj-30" edge="1">
          <mxGeometry relative="1" as="geometry">
            <Array as="points">
              <mxPoint x="400" y="880" />
              <mxPoint x="400" y="840" />
            </Array>
          </mxGeometry>
        </mxCell>
        <mxCell id="ZUFd0P2jgmWvZ_iUmbDj-24" value="" style="edgeStyle=orthogonalEdgeStyle;rounded=0;orthogonalLoop=1;jettySize=auto;html=1;" parent="1" source="ZUFd0P2jgmWvZ_iUmbDj-28" target="ZUFd0P2jgmWvZ_iUmbDj-30" edge="1">
          <mxGeometry relative="1" as="geometry">
            <Array as="points">
              <mxPoint x="400" y="880" />
              <mxPoint x="400" y="840" />
            </Array>
          </mxGeometry>
        </mxCell>
        <mxCell id="ZUFd0P2jgmWvZ_iUmbDj-25" value="&lt;span style=&quot;font-size: 12px; background-color: rgb(251, 251, 251);&quot;&gt;未找到&lt;/span&gt;" style="edgeLabel;html=1;align=center;verticalAlign=middle;resizable=0;points=[];" parent="ZUFd0P2jgmWvZ_iUmbDj-24" vertex="1" connectable="0">
          <mxGeometry x="0.1429" y="-1" relative="1" as="geometry">
            <mxPoint as="offset" />
          </mxGeometry>
        </mxCell>
        <mxCell id="ZUFd0P2jgmWvZ_iUmbDj-26" value="" style="edgeStyle=orthogonalEdgeStyle;rounded=0;orthogonalLoop=1;jettySize=auto;html=1;" parent="1" source="ZUFd0P2jgmWvZ_iUmbDj-28" edge="1">
          <mxGeometry relative="1" as="geometry">
            <Array as="points">
              <mxPoint x="400" y="880" />
              <mxPoint x="400" y="930" />
            </Array>
            <mxPoint x="540" y="930" as="targetPoint" />
          </mxGeometry>
        </mxCell>
        <mxCell id="ZUFd0P2jgmWvZ_iUmbDj-27" value="&lt;span style=&quot;font-size: 12px; background-color: rgb(251, 251, 251);&quot;&gt;找到&lt;/span&gt;" style="edgeLabel;html=1;align=center;verticalAlign=middle;resizable=0;points=[];" parent="ZUFd0P2jgmWvZ_iUmbDj-26" vertex="1" connectable="0">
          <mxGeometry x="0.1091" y="-3" relative="1" as="geometry">
            <mxPoint x="8" y="-3" as="offset" />
          </mxGeometry>
        </mxCell>
        <mxCell id="ZUFd0P2jgmWvZ_iUmbDj-28" value="查载具" style="whiteSpace=wrap;html=1;verticalAlign=center;" parent="1" vertex="1">
          <mxGeometry x="250" y="850" width="120" height="60" as="geometry" />
        </mxCell>
        <mxCell id="ZUFd0P2jgmWvZ_iUmbDj-29" value="选择rfid设备" style="text;html=1;align=center;verticalAlign=middle;resizable=0;points=[];autosize=1;strokeColor=none;fillColor=none;" parent="1" vertex="1">
          <mxGeometry x="95" y="848" width="90" height="30" as="geometry" />
        </mxCell>
        <mxCell id="ZUFd0P2jgmWvZ_iUmbDj-30" value="提示不存在" style="whiteSpace=wrap;html=1;verticalAlign=center;" parent="1" vertex="1">
          <mxGeometry x="540" y="810" width="170" height="60" as="geometry" />
        </mxCell>
        <mxCell id="ZUFd0P2jgmWvZ_iUmbDj-37" value="&lt;span style=&quot;color: rgb(255, 153, 0); font-family: -apple-system, BlinkMacSystemFont, &amp;quot;Segoe UI&amp;quot;, Roboto, Oxygen, Ubuntu, &amp;quot;Fira Sans&amp;quot;, &amp;quot;Droid Sans&amp;quot;, &amp;quot;Helvetica Neue&amp;quot;, sans-serif; font-size: 14px; text-align: left; background-color: rgb(255, 255, 255);&quot;&gt;&amp;nbsp; &amp;nbsp; &amp;nbsp; &amp;nbsp; &amp;nbsp;&amp;nbsp;&lt;/span&gt;&lt;div&gt;&lt;span style=&quot;color: rgb(255, 153, 0); font-family: -apple-system, BlinkMacSystemFont, &amp;quot;Segoe UI&amp;quot;, Roboto, Oxygen, Ubuntu, &amp;quot;Fira Sans&amp;quot;, &amp;quot;Droid Sans&amp;quot;, &amp;quot;Helvetica Neue&amp;quot;, sans-serif; font-size: 14px; text-align: left; background-color: rgb(255, 255, 255);&quot;&gt;调用AGV接口下发AGV搬运任务&lt;/span&gt;&lt;span style=&quot;background-color: rgb(255, 255, 255); color: rgb(255, 153, 0); font-family: -apple-system, BlinkMacSystemFont, &amp;quot;Segoe UI&amp;quot;, Roboto, Oxygen, Ubuntu, &amp;quot;Fira Sans&amp;quot;, &amp;quot;Droid Sans&amp;quot;, &amp;quot;Helvetica Neue&amp;quot;, sans-serif; font-size: 14px; text-align: left;&quot;&gt;&amp;nbsp; &amp;nbsp; &amp;nbsp;&lt;/span&gt;&lt;/div&gt;&lt;div&gt;&lt;span style=&quot;background-color: rgb(255, 255, 255); color: rgb(255, 153, 0); font-family: -apple-system, BlinkMacSystemFont, &amp;quot;Segoe UI&amp;quot;, Roboto, Oxygen, Ubuntu, &amp;quot;Fira Sans&amp;quot;, &amp;quot;Droid Sans&amp;quot;, &amp;quot;Helvetica Neue&amp;quot;, sans-serif; font-size: 14px; text-align: left;&quot;&gt;&amp;nbsp; &amp;nbsp; &amp;nbsp; &amp;nbsp; &amp;nbsp;&lt;/span&gt;&lt;br&gt;&lt;/div&gt;&lt;div&gt;&lt;span style=&quot;background-color: rgb(255, 255, 255); color: rgb(255, 153, 0); font-family: -apple-system, BlinkMacSystemFont, &amp;quot;Segoe UI&amp;quot;, Roboto, Oxygen, Ubuntu, &amp;quot;Fira Sans&amp;quot;, &amp;quot;Droid Sans&amp;quot;, &amp;quot;Helvetica Neue&amp;quot;, sans-serif; font-size: 14px; text-align: left;&quot;&gt;&lt;br&gt;&lt;/span&gt;&lt;/div&gt;" style="whiteSpace=wrap;html=1;verticalAlign=center;" parent="1" vertex="1">
          <mxGeometry x="540" y="1070" width="260" height="60" as="geometry" />
        </mxCell>
        <mxCell id="ZUFd0P2jgmWvZ_iUmbDj-38" value="空车场景" style="text;html=1;align=center;verticalAlign=middle;resizable=0;points=[];autosize=1;strokeColor=none;fillColor=none;" parent="1" vertex="1">
          <mxGeometry x="25" y="768" width="70" height="30" as="geometry" />
        </mxCell>
        <mxCell id="ZUFd0P2jgmWvZ_iUmbDj-63" value="" style="edgeStyle=orthogonalEdgeStyle;rounded=0;orthogonalLoop=1;jettySize=auto;html=1;" parent="1" source="ZUFd0P2jgmWvZ_iUmbDj-40" target="ZUFd0P2jgmWvZ_iUmbDj-62" edge="1">
          <mxGeometry relative="1" as="geometry" />
        </mxCell>
        <mxCell id="ZUFd0P2jgmWvZ_iUmbDj-64" value="选择" style="edgeLabel;html=1;align=center;verticalAlign=middle;resizable=0;points=[];" parent="ZUFd0P2jgmWvZ_iUmbDj-63" vertex="1" connectable="0">
          <mxGeometry x="-0.1333" y="-2" relative="1" as="geometry">
            <mxPoint as="offset" />
          </mxGeometry>
        </mxCell>
        <mxCell id="ZUFd0P2jgmWvZ_iUmbDj-40" value="Actor" style="shape=umlActor;verticalLabelPosition=bottom;verticalAlign=top;html=1;outlineConnect=0;" parent="1" vertex="1">
          <mxGeometry x="90" y="1412" width="30" height="60" as="geometry" />
        </mxCell>
        <mxCell id="ZUFd0P2jgmWvZ_iUmbDj-56" value="手动叫料场景" style="text;html=1;align=center;verticalAlign=middle;resizable=0;points=[];autosize=1;strokeColor=none;fillColor=none;" parent="1" vertex="1">
          <mxGeometry x="60" y="1330" width="100" height="30" as="geometry" />
        </mxCell>
        <mxCell id="ZUFd0P2jgmWvZ_iUmbDj-59" value="" style="edgeStyle=orthogonalEdgeStyle;rounded=0;orthogonalLoop=1;jettySize=auto;html=1;" parent="1" source="ZUFd0P2jgmWvZ_iUmbDj-57" target="ZUFd0P2jgmWvZ_iUmbDj-58" edge="1">
          <mxGeometry relative="1" as="geometry" />
        </mxCell>
        <mxCell id="ZUFd0P2jgmWvZ_iUmbDj-60" value="&lt;span style=&quot;color: rgb(255, 153, 0); font-family: -apple-system, BlinkMacSystemFont, &amp;quot;Segoe UI&amp;quot;, Roboto, Oxygen, Ubuntu, &amp;quot;Fira Sans&amp;quot;, &amp;quot;Droid Sans&amp;quot;, &amp;quot;Helvetica Neue&amp;quot;, sans-serif; font-size: 14px; text-align: left; text-wrap: wrap;&quot;&gt;container_barcode_status=‘LOADING’&lt;/span&gt;" style="edgeLabel;html=1;align=center;verticalAlign=middle;resizable=0;points=[];" parent="ZUFd0P2jgmWvZ_iUmbDj-59" vertex="1" connectable="0">
          <mxGeometry x="-0.12" y="3" relative="1" as="geometry">
            <mxPoint as="offset" />
          </mxGeometry>
        </mxCell>
        <mxCell id="ZUFd0P2jgmWvZ_iUmbDj-61" style="edgeStyle=orthogonalEdgeStyle;rounded=0;orthogonalLoop=1;jettySize=auto;html=1;entryX=0.5;entryY=0;entryDx=0;entryDy=0;" parent="1" source="ZUFd0P2jgmWvZ_iUmbDj-57" target="ZUFd0P2jgmWvZ_iUmbDj-37" edge="1">
          <mxGeometry relative="1" as="geometry" />
        </mxCell>
        <mxCell id="ZUFd0P2jgmWvZ_iUmbDj-57" value="载具" style="rounded=0;whiteSpace=wrap;html=1;" parent="1" vertex="1">
          <mxGeometry x="540" y="910" width="260" height="60" as="geometry" />
        </mxCell>
        <mxCell id="ZUFd0P2jgmWvZ_iUmbDj-58" value="&lt;span style=&quot;color: rgb(255, 153, 0); font-family: -apple-system, BlinkMacSystemFont, &amp;quot;Segoe UI&amp;quot;, Roboto, Oxygen, Ubuntu, &amp;quot;Fira Sans&amp;quot;, &amp;quot;Droid Sans&amp;quot;, &amp;quot;Helvetica Neue&amp;quot;, sans-serif; font-size: 14px; text-align: left; background-color: rgb(255, 255, 255);&quot;&gt;1.更新现有量表&amp;nbsp; &amp;nbsp; &amp;nbsp; &amp;nbsp; &amp;nbsp; &amp;nbsp; &amp;nbsp; &amp;nbsp; &amp;nbsp; &amp;nbsp; &amp;nbsp;&amp;nbsp;&lt;/span&gt;&lt;div&gt;&lt;span style=&quot;color: rgb(255, 153, 0); font-family: -apple-system, BlinkMacSystemFont, &amp;quot;Segoe UI&amp;quot;, Roboto, Oxygen, Ubuntu, &amp;quot;Fira Sans&amp;quot;, &amp;quot;Droid Sans&amp;quot;, &amp;quot;Helvetica Neue&amp;quot;, sans-serif; font-size: 14px; text-align: left; background-color: rgb(255, 255, 255);&quot;&gt;2.更新fnd_container_barcode&lt;/span&gt;&lt;span style=&quot;color: rgb(255, 153, 0); font-family: -apple-system, BlinkMacSystemFont, &amp;quot;Segoe UI&amp;quot;, Roboto, Oxygen, Ubuntu, &amp;quot;Fira Sans&amp;quot;, &amp;quot;Droid Sans&amp;quot;, &amp;quot;Helvetica Neue&amp;quot;, sans-serif; font-size: 14px; text-align: left; background-color: rgb(255, 255, 255);&quot;&gt;&lt;br&gt;&lt;/span&gt;&lt;/div&gt;" style="whiteSpace=wrap;html=1;rounded=0;" parent="1" vertex="1">
          <mxGeometry x="960" y="1070" width="220" height="60" as="geometry" />
        </mxCell>
        <mxCell id="ZUFd0P2jgmWvZ_iUmbDj-66" value="" style="edgeStyle=orthogonalEdgeStyle;rounded=0;orthogonalLoop=1;jettySize=auto;html=1;" parent="1" source="ZUFd0P2jgmWvZ_iUmbDj-62" target="ZUFd0P2jgmWvZ_iUmbDj-65" edge="1">
          <mxGeometry relative="1" as="geometry" />
        </mxCell>
        <mxCell id="ZUFd0P2jgmWvZ_iUmbDj-67" value="查询" style="edgeLabel;html=1;align=center;verticalAlign=middle;resizable=0;points=[];" parent="ZUFd0P2jgmWvZ_iUmbDj-66" vertex="1" connectable="0">
          <mxGeometry x="-0.125" y="-1" relative="1" as="geometry">
            <mxPoint as="offset" />
          </mxGeometry>
        </mxCell>
        <mxCell id="ZUFd0P2jgmWvZ_iUmbDj-62" value="&lt;div&gt;&lt;span style=&quot;color: rgb(255, 153, 0); font-family: -apple-system, BlinkMacSystemFont, &amp;quot;Segoe UI&amp;quot;, Roboto, Oxygen, Ubuntu, &amp;quot;Fira Sans&amp;quot;, &amp;quot;Droid Sans&amp;quot;, &amp;quot;Helvetica Neue&amp;quot;, sans-serif; font-size: 14px; text-align: left; background-color: rgb(255, 255, 255);&quot;&gt;产线&lt;/span&gt;&lt;/div&gt;&lt;div&gt;&lt;span style=&quot;color: rgb(255, 153, 0); font-family: -apple-system, BlinkMacSystemFont, &amp;quot;Segoe UI&amp;quot;, Roboto, Oxygen, Ubuntu, &amp;quot;Fira Sans&amp;quot;, &amp;quot;Droid Sans&amp;quot;, &amp;quot;Helvetica Neue&amp;quot;, sans-serif; font-size: 14px; text-align: left; background-color: rgb(255, 255, 255);&quot;&gt;物料类型&lt;/span&gt;&lt;/div&gt;&lt;div&gt;&lt;span style=&quot;color: rgb(255, 153, 0); font-family: -apple-system, BlinkMacSystemFont, &amp;quot;Segoe UI&amp;quot;, Roboto, Oxygen, Ubuntu, &amp;quot;Fira Sans&amp;quot;, &amp;quot;Droid Sans&amp;quot;, &amp;quot;Helvetica Neue&amp;quot;, sans-serif; font-size: 14px; text-align: left; background-color: rgb(255, 255, 255);&quot;&gt;排序日期&lt;/span&gt;&lt;/div&gt;" style="whiteSpace=wrap;html=1;verticalAlign=top;" parent="1" vertex="1">
          <mxGeometry x="210" y="1412" width="120" height="60" as="geometry" />
        </mxCell>
        <mxCell id="ZUFd0P2jgmWvZ_iUmbDj-69" value="" style="edgeStyle=orthogonalEdgeStyle;rounded=0;orthogonalLoop=1;jettySize=auto;html=1;" parent="1" source="ZUFd0P2jgmWvZ_iUmbDj-65" target="ZUFd0P2jgmWvZ_iUmbDj-68" edge="1">
          <mxGeometry relative="1" as="geometry" />
        </mxCell>
        <mxCell id="ZUFd0P2jgmWvZ_iUmbDj-70" value="选择后查询" style="edgeLabel;html=1;align=center;verticalAlign=middle;resizable=0;points=[];" parent="ZUFd0P2jgmWvZ_iUmbDj-69" vertex="1" connectable="0">
          <mxGeometry x="-0.275" y="2" relative="1" as="geometry">
            <mxPoint as="offset" />
          </mxGeometry>
        </mxCell>
        <mxCell id="ZUFd0P2jgmWvZ_iUmbDj-65" value="&lt;span style=&quot;font-family: &amp;quot;Helvetica Neue&amp;quot;, Helvetica, &amp;quot;PingFang SC&amp;quot;, &amp;quot;Microsoft YaHei&amp;quot;, &amp;quot;Hiragino Sans GB&amp;quot;, SimSun, &amp;quot;sans-serif&amp;quot;; font-size: 9.96px; font-weight: 700; text-align: start; background-color: rgb(255, 255, 255);&quot;&gt;排产工单明细&lt;/span&gt;" style="whiteSpace=wrap;html=1;verticalAlign=center;" parent="1" vertex="1">
          <mxGeometry x="410" y="1412" width="120" height="60" as="geometry" />
        </mxCell>
        <mxCell id="ZUFd0P2jgmWvZ_iUmbDj-74" value="" style="edgeStyle=orthogonalEdgeStyle;rounded=0;orthogonalLoop=1;jettySize=auto;html=1;" parent="1" source="ZUFd0P2jgmWvZ_iUmbDj-68" target="ZUFd0P2jgmWvZ_iUmbDj-73" edge="1">
          <mxGeometry relative="1" as="geometry" />
        </mxCell>
        <mxCell id="ZUFd0P2jgmWvZ_iUmbDj-75" value="点击" style="edgeLabel;html=1;align=center;verticalAlign=middle;resizable=0;points=[];" parent="ZUFd0P2jgmWvZ_iUmbDj-74" vertex="1" connectable="0">
          <mxGeometry x="-0.25" y="4" relative="1" as="geometry">
            <mxPoint as="offset" />
          </mxGeometry>
        </mxCell>
        <mxCell id="ZUFd0P2jgmWvZ_iUmbDj-68" value="&lt;span style=&quot;color: rgb(255, 153, 0); font-family: -apple-system, BlinkMacSystemFont, &amp;quot;Segoe UI&amp;quot;, Roboto, Oxygen, Ubuntu, &amp;quot;Fira Sans&amp;quot;, &amp;quot;Droid Sans&amp;quot;, &amp;quot;Helvetica Neue&amp;quot;, sans-serif; font-size: 14px; text-align: left; background-color: rgb(255, 255, 255);&quot;&gt;物料明细&lt;/span&gt;" style="whiteSpace=wrap;html=1;verticalAlign=center;" parent="1" vertex="1">
          <mxGeometry x="700" y="1412" width="120" height="60" as="geometry" />
        </mxCell>
        <mxCell id="ZUFd0P2jgmWvZ_iUmbDj-71" value="下发agv叫料任务" style="whiteSpace=wrap;html=1;verticalAlign=center;" parent="1" vertex="1">
          <mxGeometry x="900" y="1710" width="120" height="60" as="geometry" />
        </mxCell>
        <mxCell id="ZUFd0P2jgmWvZ_iUmbDj-77" value="" style="edgeStyle=orthogonalEdgeStyle;rounded=0;orthogonalLoop=1;jettySize=auto;html=1;" parent="1" source="ZUFd0P2jgmWvZ_iUmbDj-73" target="ZUFd0P2jgmWvZ_iUmbDj-76" edge="1">
          <mxGeometry relative="1" as="geometry" />
        </mxCell>
        <mxCell id="ZUFd0P2jgmWvZ_iUmbDj-78" value="弹窗" style="edgeLabel;html=1;align=center;verticalAlign=middle;resizable=0;points=[];" parent="ZUFd0P2jgmWvZ_iUmbDj-77" vertex="1" connectable="0">
          <mxGeometry x="-0.125" relative="1" as="geometry">
            <mxPoint as="offset" />
          </mxGeometry>
        </mxCell>
        <mxCell id="ZUFd0P2jgmWvZ_iUmbDj-73" value="AGV叫料" style="whiteSpace=wrap;html=1;verticalAlign=center;" parent="1" vertex="1">
          <mxGeometry x="900" y="1412" width="120" height="60" as="geometry" />
        </mxCell>
        <mxCell id="ZUFd0P2jgmWvZ_iUmbDj-79" style="edgeStyle=orthogonalEdgeStyle;rounded=0;orthogonalLoop=1;jettySize=auto;html=1;entryX=0.5;entryY=0;entryDx=0;entryDy=0;" parent="1" source="ZUFd0P2jgmWvZ_iUmbDj-76" target="ZUFd0P2jgmWvZ_iUmbDj-71" edge="1">
          <mxGeometry relative="1" as="geometry" />
        </mxCell>
        <mxCell id="ZUFd0P2jgmWvZ_iUmbDj-76" value="选择货位" style="whiteSpace=wrap;html=1;verticalAlign=center;" parent="1" vertex="1">
          <mxGeometry x="900" y="1552" width="120" height="60" as="geometry" />
        </mxCell>
        <mxCell id="234MPPTfTjV2CmHxofjI-3" value="" style="edgeStyle=orthogonalEdgeStyle;rounded=0;orthogonalLoop=1;jettySize=auto;html=1;" parent="1" source="234MPPTfTjV2CmHxofjI-1" target="234MPPTfTjV2CmHxofjI-2" edge="1">
          <mxGeometry relative="1" as="geometry" />
        </mxCell>
        <mxCell id="234MPPTfTjV2CmHxofjI-9" value="选择" style="edgeLabel;html=1;align=center;verticalAlign=middle;resizable=0;points=[];" parent="234MPPTfTjV2CmHxofjI-3" vertex="1" connectable="0">
          <mxGeometry x="-0.1571" y="2" relative="1" as="geometry">
            <mxPoint as="offset" />
          </mxGeometry>
        </mxCell>
        <mxCell id="234MPPTfTjV2CmHxofjI-1" value="Actor" style="shape=umlActor;verticalLabelPosition=bottom;verticalAlign=top;html=1;outlineConnect=0;" parent="1" vertex="1">
          <mxGeometry x="120" y="-110" width="30" height="60" as="geometry" />
        </mxCell>
        <mxCell id="234MPPTfTjV2CmHxofjI-7" value="" style="edgeStyle=orthogonalEdgeStyle;rounded=0;orthogonalLoop=1;jettySize=auto;html=1;" parent="1" source="234MPPTfTjV2CmHxofjI-2" target="234MPPTfTjV2CmHxofjI-6" edge="1">
          <mxGeometry relative="1" as="geometry" />
        </mxCell>
        <mxCell id="234MPPTfTjV2CmHxofjI-8" value="配置" style="edgeLabel;html=1;align=center;verticalAlign=middle;resizable=0;points=[];" parent="234MPPTfTjV2CmHxofjI-7" vertex="1" connectable="0">
          <mxGeometry x="-0.0333" y="2" relative="1" as="geometry">
            <mxPoint as="offset" />
          </mxGeometry>
        </mxCell>
        <mxCell id="234MPPTfTjV2CmHxofjI-2" value="RFID维护" style="whiteSpace=wrap;html=1;verticalAlign=top;" parent="1" vertex="1">
          <mxGeometry x="290" y="-110" width="120" height="60" as="geometry" />
        </mxCell>
        <mxCell id="234MPPTfTjV2CmHxofjI-26" style="edgeStyle=orthogonalEdgeStyle;rounded=0;orthogonalLoop=1;jettySize=auto;html=1;entryX=1;entryY=0.5;entryDx=0;entryDy=0;exitX=0.5;exitY=0;exitDx=0;exitDy=0;" parent="1" source="234MPPTfTjV2CmHxofjI-6" target="234MPPTfTjV2CmHxofjI-24" edge="1">
          <mxGeometry relative="1" as="geometry">
            <mxPoint x="580" y="-90" as="sourcePoint" />
            <mxPoint x="585" y="-280" as="targetPoint" />
            <Array as="points">
              <mxPoint x="780" y="-110" />
              <mxPoint x="780" y="-310" />
            </Array>
          </mxGeometry>
        </mxCell>
        <mxCell id="234MPPTfTjV2CmHxofjI-27" value="发送消息（data.data、type、flag）" style="edgeLabel;html=1;align=center;verticalAlign=middle;resizable=0;points=[];" parent="234MPPTfTjV2CmHxofjI-26" vertex="1" connectable="0">
          <mxGeometry x="0.0407" relative="1" as="geometry">
            <mxPoint as="offset" />
          </mxGeometry>
        </mxCell>
        <mxCell id="234MPPTfTjV2CmHxofjI-6" value="心跳处理类" style="whiteSpace=wrap;html=1;verticalAlign=top;" parent="1" vertex="1">
          <mxGeometry x="707" y="-110" width="120" height="60" as="geometry" />
        </mxCell>
        <mxCell id="234MPPTfTjV2CmHxofjI-13" value="" style="edgeStyle=orthogonalEdgeStyle;rounded=0;orthogonalLoop=1;jettySize=auto;html=1;" parent="1" source="234MPPTfTjV2CmHxofjI-10" target="234MPPTfTjV2CmHxofjI-12" edge="1">
          <mxGeometry relative="1" as="geometry" />
        </mxCell>
        <mxCell id="234MPPTfTjV2CmHxofjI-10" value="接口/public/rfid/rfidAutoCastItemPush" style="whiteSpace=wrap;html=1;verticalAlign=top;" parent="1" vertex="1">
          <mxGeometry x="1040" y="-270" width="230" height="60" as="geometry" />
        </mxCell>
        <mxCell id="234MPPTfTjV2CmHxofjI-14" style="edgeStyle=orthogonalEdgeStyle;rounded=0;orthogonalLoop=1;jettySize=auto;html=1;entryX=1;entryY=0.5;entryDx=0;entryDy=0;" parent="1" source="234MPPTfTjV2CmHxofjI-12" target="234MPPTfTjV2CmHxofjI-6" edge="1">
          <mxGeometry relative="1" as="geometry">
            <Array as="points">
              <mxPoint x="920" y="-80" />
              <mxPoint x="920" y="-80" />
            </Array>
          </mxGeometry>
        </mxCell>
        <mxCell id="234MPPTfTjV2CmHxofjI-15" value="反射调用" style="edgeLabel;html=1;align=center;verticalAlign=middle;resizable=0;points=[];" parent="234MPPTfTjV2CmHxofjI-14" vertex="1" connectable="0">
          <mxGeometry x="-0.1519" y="2" relative="1" as="geometry">
            <mxPoint x="-53" y="-2" as="offset" />
          </mxGeometry>
        </mxCell>
        <mxCell id="234MPPTfTjV2CmHxofjI-12" value="查询RFID维护" style="whiteSpace=wrap;html=1;verticalAlign=top;" parent="1" vertex="1">
          <mxGeometry x="1095" y="-110" width="120" height="60" as="geometry" />
        </mxCell>
        <mxCell id="234MPPTfTjV2CmHxofjI-18" value="" style="edgeStyle=orthogonalEdgeStyle;rounded=0;orthogonalLoop=1;jettySize=auto;html=1;" parent="1" source="234MPPTfTjV2CmHxofjI-16" target="234MPPTfTjV2CmHxofjI-17" edge="1">
          <mxGeometry relative="1" as="geometry" />
        </mxCell>
        <mxCell id="234MPPTfTjV2CmHxofjI-19" value="选择" style="edgeLabel;html=1;align=center;verticalAlign=middle;resizable=0;points=[];" parent="234MPPTfTjV2CmHxofjI-18" vertex="1" connectable="0">
          <mxGeometry x="-0.0182" y="-1" relative="1" as="geometry">
            <mxPoint as="offset" />
          </mxGeometry>
        </mxCell>
        <mxCell id="234MPPTfTjV2CmHxofjI-62" style="edgeStyle=orthogonalEdgeStyle;rounded=0;orthogonalLoop=1;jettySize=auto;html=1;" parent="1" source="234MPPTfTjV2CmHxofjI-16" target="234MPPTfTjV2CmHxofjI-30" edge="1">
          <mxGeometry relative="1" as="geometry">
            <Array as="points">
              <mxPoint x="210" y="-220" />
              <mxPoint x="210" y="-220" />
            </Array>
          </mxGeometry>
        </mxCell>
        <mxCell id="234MPPTfTjV2CmHxofjI-63" style="edgeStyle=orthogonalEdgeStyle;rounded=0;orthogonalLoop=1;jettySize=auto;html=1;" parent="1" source="234MPPTfTjV2CmHxofjI-16" target="234MPPTfTjV2CmHxofjI-61" edge="1">
          <mxGeometry relative="1" as="geometry">
            <Array as="points">
              <mxPoint x="180" y="-310" />
              <mxPoint x="180" y="-220" />
            </Array>
          </mxGeometry>
        </mxCell>
        <mxCell id="234MPPTfTjV2CmHxofjI-64" value="选择" style="edgeLabel;html=1;align=center;verticalAlign=middle;resizable=0;points=[];" parent="234MPPTfTjV2CmHxofjI-63" vertex="1" connectable="0">
          <mxGeometry x="-0.01" y="-2" relative="1" as="geometry">
            <mxPoint as="offset" />
          </mxGeometry>
        </mxCell>
        <mxCell id="234MPPTfTjV2CmHxofjI-16" value="Actor" style="shape=umlActor;verticalLabelPosition=bottom;verticalAlign=top;html=1;outlineConnect=0;" parent="1" vertex="1">
          <mxGeometry x="120" y="-340" width="30" height="60" as="geometry" />
        </mxCell>
        <mxCell id="234MPPTfTjV2CmHxofjI-21" value="" style="edgeStyle=orthogonalEdgeStyle;rounded=0;orthogonalLoop=1;jettySize=auto;html=1;entryX=0;entryY=0.5;entryDx=0;entryDy=0;" parent="1" source="234MPPTfTjV2CmHxofjI-17" target="234MPPTfTjV2CmHxofjI-24" edge="1">
          <mxGeometry relative="1" as="geometry">
            <mxPoint x="500" y="-310" as="targetPoint" />
          </mxGeometry>
        </mxCell>
        <mxCell id="234MPPTfTjV2CmHxofjI-17" value="RFID设备" style="whiteSpace=wrap;html=1;verticalAlign=top;" parent="1" vertex="1">
          <mxGeometry x="260" y="-340" width="120" height="60" as="geometry" />
        </mxCell>
        <mxCell id="234MPPTfTjV2CmHxofjI-24" value="websocket连接" style="whiteSpace=wrap;html=1;verticalAlign=top;" parent="1" vertex="1">
          <mxGeometry x="528.5" y="-340" width="133" height="60" as="geometry" />
        </mxCell>
        <mxCell id="234MPPTfTjV2CmHxofjI-34" value="产线叫料（纸箱蒸发器）（电机）" style="text;html=1;align=center;verticalAlign=middle;whiteSpace=wrap;rounded=0;" parent="1" vertex="1">
          <mxGeometry x="5" y="-360" width="195" height="30" as="geometry" />
        </mxCell>
        <mxCell id="234MPPTfTjV2CmHxofjI-35" value="" style="rounded=0;whiteSpace=wrap;html=1;" parent="1" vertex="1">
          <mxGeometry x="5" y="-870" width="1450" height="430" as="geometry" />
        </mxCell>
        <mxCell id="234MPPTfTjV2CmHxofjI-36" value="" style="edgeStyle=orthogonalEdgeStyle;rounded=0;orthogonalLoop=1;jettySize=auto;html=1;" parent="1" source="234MPPTfTjV2CmHxofjI-38" target="234MPPTfTjV2CmHxofjI-41" edge="1">
          <mxGeometry relative="1" as="geometry" />
        </mxCell>
        <mxCell id="234MPPTfTjV2CmHxofjI-37" value="选择" style="edgeLabel;html=1;align=center;verticalAlign=middle;resizable=0;points=[];" parent="234MPPTfTjV2CmHxofjI-36" vertex="1" connectable="0">
          <mxGeometry x="-0.1571" y="2" relative="1" as="geometry">
            <mxPoint as="offset" />
          </mxGeometry>
        </mxCell>
        <mxCell id="234MPPTfTjV2CmHxofjI-38" value="Actor" style="shape=umlActor;verticalLabelPosition=bottom;verticalAlign=top;html=1;outlineConnect=0;" parent="1" vertex="1">
          <mxGeometry x="125" y="-610" width="30" height="60" as="geometry" />
        </mxCell>
        <mxCell id="234MPPTfTjV2CmHxofjI-39" value="" style="edgeStyle=orthogonalEdgeStyle;rounded=0;orthogonalLoop=1;jettySize=auto;html=1;" parent="1" source="234MPPTfTjV2CmHxofjI-41" target="234MPPTfTjV2CmHxofjI-44" edge="1">
          <mxGeometry relative="1" as="geometry" />
        </mxCell>
        <mxCell id="234MPPTfTjV2CmHxofjI-40" value="配置" style="edgeLabel;html=1;align=center;verticalAlign=middle;resizable=0;points=[];" parent="234MPPTfTjV2CmHxofjI-39" vertex="1" connectable="0">
          <mxGeometry x="-0.0333" y="2" relative="1" as="geometry">
            <mxPoint as="offset" />
          </mxGeometry>
        </mxCell>
        <mxCell id="234MPPTfTjV2CmHxofjI-41" value="RFID维护" style="whiteSpace=wrap;html=1;verticalAlign=top;" parent="1" vertex="1">
          <mxGeometry x="295" y="-610" width="120" height="60" as="geometry" />
        </mxCell>
        <mxCell id="234MPPTfTjV2CmHxofjI-42" style="edgeStyle=orthogonalEdgeStyle;rounded=0;orthogonalLoop=1;jettySize=auto;html=1;entryX=0.5;entryY=1;entryDx=0;entryDy=0;" parent="1" source="234MPPTfTjV2CmHxofjI-44" target="234MPPTfTjV2CmHxofjI-59" edge="1">
          <mxGeometry relative="1" as="geometry">
            <Array as="points">
              <mxPoint x="595" y="-690" />
              <mxPoint x="1015" y="-690" />
            </Array>
          </mxGeometry>
        </mxCell>
        <mxCell id="234MPPTfTjV2CmHxofjI-43" value="发送消息（data.data、type、flag）" style="edgeLabel;html=1;align=center;verticalAlign=middle;resizable=0;points=[];" parent="234MPPTfTjV2CmHxofjI-42" vertex="1" connectable="0">
          <mxGeometry x="0.0407" relative="1" as="geometry">
            <mxPoint as="offset" />
          </mxGeometry>
        </mxCell>
        <mxCell id="234MPPTfTjV2CmHxofjI-44" value="心跳处理类" style="whiteSpace=wrap;html=1;verticalAlign=top;" parent="1" vertex="1">
          <mxGeometry x="535" y="-610" width="120" height="60" as="geometry" />
        </mxCell>
        <mxCell id="234MPPTfTjV2CmHxofjI-45" value="" style="edgeStyle=orthogonalEdgeStyle;rounded=0;orthogonalLoop=1;jettySize=auto;html=1;" parent="1" source="234MPPTfTjV2CmHxofjI-46" target="234MPPTfTjV2CmHxofjI-49" edge="1">
          <mxGeometry relative="1" as="geometry" />
        </mxCell>
        <mxCell id="234MPPTfTjV2CmHxofjI-46" value="接口/public/rfid/rfidAutoCastItemPush" style="whiteSpace=wrap;html=1;verticalAlign=top;" parent="1" vertex="1">
          <mxGeometry x="735" y="-610" width="230" height="60" as="geometry" />
        </mxCell>
        <mxCell id="234MPPTfTjV2CmHxofjI-47" style="edgeStyle=orthogonalEdgeStyle;rounded=0;orthogonalLoop=1;jettySize=auto;html=1;entryX=0.5;entryY=1;entryDx=0;entryDy=0;" parent="1" source="234MPPTfTjV2CmHxofjI-49" target="234MPPTfTjV2CmHxofjI-44" edge="1">
          <mxGeometry relative="1" as="geometry">
            <Array as="points">
              <mxPoint x="1160" y="-500" />
              <mxPoint x="595" y="-500" />
            </Array>
          </mxGeometry>
        </mxCell>
        <mxCell id="234MPPTfTjV2CmHxofjI-48" value="反射调用" style="edgeLabel;html=1;align=center;verticalAlign=middle;resizable=0;points=[];" parent="234MPPTfTjV2CmHxofjI-47" vertex="1" connectable="0">
          <mxGeometry x="-0.1519" y="2" relative="1" as="geometry">
            <mxPoint x="-53" y="-2" as="offset" />
          </mxGeometry>
        </mxCell>
        <mxCell id="234MPPTfTjV2CmHxofjI-49" value="查询RFID维护" style="whiteSpace=wrap;html=1;verticalAlign=top;" parent="1" vertex="1">
          <mxGeometry x="1100" y="-610" width="120" height="60" as="geometry" />
        </mxCell>
        <mxCell id="234MPPTfTjV2CmHxofjI-50" value="" style="edgeStyle=orthogonalEdgeStyle;rounded=0;orthogonalLoop=1;jettySize=auto;html=1;" parent="1" source="234MPPTfTjV2CmHxofjI-52" target="234MPPTfTjV2CmHxofjI-54" edge="1">
          <mxGeometry relative="1" as="geometry" />
        </mxCell>
        <mxCell id="234MPPTfTjV2CmHxofjI-51" value="选择" style="edgeLabel;html=1;align=center;verticalAlign=middle;resizable=0;points=[];" parent="234MPPTfTjV2CmHxofjI-50" vertex="1" connectable="0">
          <mxGeometry x="-0.0182" y="-1" relative="1" as="geometry">
            <mxPoint as="offset" />
          </mxGeometry>
        </mxCell>
        <mxCell id="234MPPTfTjV2CmHxofjI-52" value="Actor" style="shape=umlActor;verticalLabelPosition=bottom;verticalAlign=top;html=1;outlineConnect=0;" parent="1" vertex="1">
          <mxGeometry x="125" y="-840" width="30" height="60" as="geometry" />
        </mxCell>
        <mxCell id="234MPPTfTjV2CmHxofjI-53" value="" style="edgeStyle=orthogonalEdgeStyle;rounded=0;orthogonalLoop=1;jettySize=auto;html=1;" parent="1" source="234MPPTfTjV2CmHxofjI-54" target="234MPPTfTjV2CmHxofjI-56" edge="1">
          <mxGeometry relative="1" as="geometry" />
        </mxCell>
        <mxCell id="234MPPTfTjV2CmHxofjI-54" value="RFID设备" style="whiteSpace=wrap;html=1;verticalAlign=top;" parent="1" vertex="1">
          <mxGeometry x="265" y="-840" width="120" height="60" as="geometry" />
        </mxCell>
        <mxCell id="234MPPTfTjV2CmHxofjI-55" value="" style="edgeStyle=orthogonalEdgeStyle;rounded=0;orthogonalLoop=1;jettySize=auto;html=1;" parent="1" source="234MPPTfTjV2CmHxofjI-56" target="234MPPTfTjV2CmHxofjI-58" edge="1">
          <mxGeometry relative="1" as="geometry" />
        </mxCell>
        <mxCell id="234MPPTfTjV2CmHxofjI-56" value="查询出库任务" style="whiteSpace=wrap;html=1;verticalAlign=top;" parent="1" vertex="1">
          <mxGeometry x="505" y="-840" width="120" height="60" as="geometry" />
        </mxCell>
        <mxCell id="234MPPTfTjV2CmHxofjI-57" value="" style="edgeStyle=orthogonalEdgeStyle;rounded=0;orthogonalLoop=1;jettySize=auto;html=1;" parent="1" source="234MPPTfTjV2CmHxofjI-58" target="234MPPTfTjV2CmHxofjI-59" edge="1">
          <mxGeometry relative="1" as="geometry" />
        </mxCell>
        <mxCell id="234MPPTfTjV2CmHxofjI-58" value="保存出库任务" style="whiteSpace=wrap;html=1;verticalAlign=top;" parent="1" vertex="1">
          <mxGeometry x="705" y="-840" width="120" height="60" as="geometry" />
        </mxCell>
        <mxCell id="234MPPTfTjV2CmHxofjI-59" value="websocket连接" style="whiteSpace=wrap;html=1;verticalAlign=top;" parent="1" vertex="1">
          <mxGeometry x="955" y="-840" width="120" height="60" as="geometry" />
        </mxCell>
        <mxCell id="234MPPTfTjV2CmHxofjI-60" value="RFID标签自动出库" style="text;html=1;align=center;verticalAlign=middle;whiteSpace=wrap;rounded=0;" parent="1" vertex="1">
          <mxGeometry x="10" y="-860" width="115" height="30" as="geometry" />
        </mxCell>
        <mxCell id="234MPPTfTjV2CmHxofjI-66" style="edgeStyle=orthogonalEdgeStyle;rounded=0;orthogonalLoop=1;jettySize=auto;html=1;entryX=0;entryY=0.5;entryDx=0;entryDy=0;" parent="1" source="234MPPTfTjV2CmHxofjI-61" target="234MPPTfTjV2CmHxofjI-24" edge="1">
          <mxGeometry relative="1" as="geometry" />
        </mxCell>
        <mxCell id="234MPPTfTjV2CmHxofjI-61" value="空车RFID设备" style="whiteSpace=wrap;html=1;verticalAlign=top;" parent="1" vertex="1">
          <mxGeometry x="260" y="-250" width="120" height="60" as="geometry" />
        </mxCell>
      </root>
    </mxGraphModel>
  </diagram>
</mxfile>
